<svg width="273" height="36" viewBox="0 0 273 36" fill="none" xmlns="http://www.w3.org/2000/svg">
<path d="M0.777588 1.15332V34.8588H13.3536L25.6845 34.8585V24.4568H13.3536V21.5274H24.8937V14.082H13.3536V11.4934H25.4867V1.15332H0.777588Z" fill="#2DA954"/>
<path d="M40.5596 24.3786H51.4364V34.8585H40.5596L27.9835 34.8586V1.15332H40.5596V24.3786Z" fill="#2DA954"/>
<path d="M65.2131 24.3786H76.0898V34.8585H65.2131L52.6371 34.8586V1.15332H65.2131V24.3786Z" fill="#2DA954"/>
<path d="M89.8668 24.4569H102.198V34.8584H89.8668L77.2908 34.8587V1.15344H102V11.4935H89.8668V14.0821H101.407V21.5275H89.8668V24.4569Z" fill="#2DA954"/>
<path d="M131.579 34.8666L129.183 32.4014C127.496 33.7203 123.433 35.581 117.808 35.581C108.849 35.581 104.497 31.1253 104.497 25.4859C104.497 19.653 111.221 16.4949 113.697 15.9421C112.336 14.9341 110.625 13.0529 110.625 9.67541C110.625 4.59889 115.533 0.447021 122.925 0.447021C130.674 0.447021 135.274 5.0908 135.274 9.7722C135.274 14.4583 131.106 17.2272 128.772 18.3415L131.632 21.2983C133.396 20.1388 135.435 18.0285 136.878 16.2629L143.289 23.584C142.381 24.4914 140.617 26.0034 138.047 27.5159L145.264 34.8666H131.579ZM119.144 21.8738C118.64 22.1762 117.271 22.8949 117.271 24.5756C117.271 26.2642 118.636 27.2239 120.546 27.2239C121.861 27.2239 122.62 26.9259 123.411 26.3679L119.144 21.8738ZM122.068 11.4862C122.319 11.94 122.741 12.4494 123.295 12.8022C123.749 12.5503 124.386 12.0912 124.789 11.6878C125.344 11.1332 125.596 10.5283 125.596 9.7722C125.596 8.52731 124.688 7.7055 123.731 7.7055C122.584 7.7055 121.614 8.60289 121.614 9.97408C121.614 10.4781 121.715 10.9821 122.068 11.4862Z" fill="#2DA954"/>
<path d="M178.313 17.8365C178.313 29.6199 168.809 34.8583 159.817 34.8583H147.834V1.15295H159.817C169.107 1.15295 178.313 5.41283 178.313 17.8365ZM165.407 17.8365C165.407 13.2205 163.071 11.8372 160.41 11.8372V23.8379C163.071 23.8379 165.407 22.4546 165.407 17.8365Z" fill="#2DA954"/>
<path d="M192.383 24.4569H204.714V34.8584H192.383L179.807 34.8587V1.15344H204.516V11.4935H192.383V14.0821H203.923V21.5275H192.383V24.4569Z" fill="#2DA954"/>
<path d="M219.589 24.4569H231.92V34.8584H219.589L207.013 34.8587V1.15344H231.722V11.4935H219.589V14.0821H231.129V21.5275H219.589V24.4569Z" fill="#2DA954"/>
<path d="M244.315 8.45609C244.207 8.67125 244.086 8.87899 243.951 9.07672L240.26 15.386H234.661L237.1 11.0081C235.319 10.2098 233.834 8.47679 233.834 5.97339C233.834 2.91664 236.312 0.438599 239.369 0.438599C242.425 0.438599 244.903 2.91664 244.903 5.97339C244.903 6.86336 244.692 7.70346 244.319 8.44849L244.315 8.45609Z" fill="#2DA954"/>
<path d="M272.973 24.5335C272.973 32.6357 264.887 35.5695 258.697 35.5695C253.76 35.5695 249.253 34.3033 247.48 33.5235V22.4102C248.969 24.2424 253.392 25.7263 256.76 25.7263C258.455 25.7263 259.997 25.3505 259.997 24.1672C259.997 23.0947 258.791 22.4622 257.784 22.1882L253.805 21.1067C251.725 20.5476 246.208 18.6835 246.208 11.5908C246.208 4.08045 253.726 0.418945 259.753 0.418945C263.8 0.418945 267.821 1.50527 269.363 2.39748V13.102C267.523 11.3646 264.336 10.4992 262.053 10.4992C260.271 10.4992 259.193 10.8777 259.193 11.8674C259.193 12.775 260.021 12.8797 261.12 13.1751L264.703 14.14C267.717 14.9501 272.973 18.2031 272.973 24.5335Z" fill="#2DA954"/>
</svg>
